<svg id="Capa_1" enable-background="new 0 0 512 512" height="512" viewBox="0 0 512 512" width="512" xmlns="http://www.w3.org/2000/svg"><g><g><g><g><g><g><g><g><g><g><g><g><g><g><g><g><g><g><g><g><g><g><circle cx="256" cy="256" fill="#ff8d8d" r="256"/></g></g></g></g></g></g></g></g></g></g></g></g></g></g></g></g></g></g></g></g></g><path d="m434.805 173.675-29.316-29.316-27.045 43.914-18.501 4.792-231.992 82.09-83.432 41.95 194.308 194.308c5.677.377 11.4.587 17.173.587 141.385 0 256-114.615 256-256 0-12.917-.967-25.608-2.813-38.012l-50.499-50.499z" fill="#ff5b5b"/><g><path d="m410.087 188.783-3.037-35.284 51.637 13.99z" fill="#7e5d40"/><g><path d="m329.681 398.797-36.823-70.139 15.576-8.177 41.116 78.316z" fill="#7e5d40"/></g><g><path d="m287.225 398.797-41.116-78.316h19.87l41.116 78.316z" fill="#7e5d40"/></g><path d="m256 228.387-33.049 21.819-105.112 8.164-86.473 28.956 13.151 29.779 86.125-27.428c27.814 22.353 73.34 51.787 125.358 55.104l25.547-55.943z" fill="#ffea98"/><path d="m363.515 126.689c-32.405 0-58.675 26.27-58.675 58.675 0 3.481.321 6.886.902 10.201l-.058.019-49.684 32.803v116.395c17.381 1.108 35.486-.698 53.898-6.66 106.222-34.396 112.292-148.71 112.292-148.71l-.148-.091c.087-1.309.148-2.625.148-3.955 0-32.407-26.27-58.677-58.675-58.677z" fill="#fd5"/><path d="m256 212.175-73.329 24.486-64.832 21.709c16.664 32.208 50.285 54.223 89.051 54.223 17.845 0 34.597-4.67 49.11-12.847l18.565-43.746z" fill="#fd5"/><path d="m256 212.175v87.572c30.496-17.181 51.095-49.861 51.095-87.358 0-5.727-.488-11.34-1.41-16.805z" fill="#ffd322"/><g><g><circle cx="366.339" cy="171.141" fill="#fff" r="15.527"/></g><g><circle cx="366.339" cy="171.141" fill="#2d2d2d" r="10.98"/></g></g></g></g></svg>